<?xml version="1.0" standalone="no"?>
<!DOCTYPE svg PUBLIC "-//W3C//DTD SVG 20010904//EN"
 "http://www.w3.org/TR/2001/REC-SVG-20010904/DTD/svg10.dtd">
<svg version="1.0" xmlns="http://www.w3.org/2000/svg"
 width="538.000000pt" height="538.000000pt" viewBox="0 0 538.000000 538.000000"
 preserveAspectRatio="xMidYMid meet">
<metadata>
Created by potrace 1.14, written by Peter Selinger 2001-2017
</metadata>
<g transform="translate(0.000000,538.000000) scale(0.100000,-0.100000)"
fill="#000000" stroke="none">
<path d="M2390 5359 c-161 -22 -162 -22 -316 -59 -919 -221 -1546 -773 -1904
-1676 -25 -61 -70 -206 -70 -223 0 -5 84 64 135 110 326 298 771 576 1140 712
74 27 203 66 243 73 13 3 52 11 86 19 33 8 84 17 111 21 28 3 57 8 66 9 146
28 522 25 724 -5 261 -38 467 -138 574 -277 42 -54 71 -116 111 -235 l32 -97
66 -22 c37 -12 71 -25 77 -30 5 -5 14 -9 21 -9 23 0 281 -152 304 -179 3 -3
21 -18 40 -32 63 -47 161 -152 210 -226 120 -179 127 -384 19 -531 -31 -42
-49 -47 -49 -13 0 22 -71 134 -108 171 -111 110 -248 171 -439 195 -26 4 -59
8 -73 11 -56 10 -240 4 -311 -10 -76 -15 -171 -47 -199 -67 -12 -9 -11 -9 5
-4 108 39 430 57 560 31 82 -17 180 -49 248 -83 44 -22 154 -119 145 -128 -5
-5 -50 -12 -133 -20 -168 -16 -308 -39 -380 -62 -162 -53 -360 -223 -502 -431
-13 -18 -23 -37 -23 -42 0 -4 -4 -10 -8 -12 -4 -1 -17 -19 -28 -38 -12 -19
-39 -64 -61 -100 -186 -305 -312 -656 -359 -1005 -3 -22 -7 -51 -10 -65 -22
-133 -21 -421 1 -545 32 -178 98 -405 130 -449 8 -10 33 -22 57 -26 41 -8 372
-5 433 4 17 2 53 7 80 10 28 3 105 18 173 32 576 119 1031 369 1430 786 72 76
103 110 135 151 12 16 27 34 33 41 27 29 147 210 198 297 194 338 317 728 352
1124 17 181 7 468 -21 632 -3 21 -8 52 -10 68 -11 89 -83 367 -112 435 -3 8
-7 20 -8 25 -16 63 -119 285 -193 415 -47 82 -166 265 -182 280 -3 3 -32 39
-65 80 -79 100 -290 312 -390 391 -206 165 -425 297 -655 394 -147 63 -422
145 -541 161 -22 3 -46 7 -52 8 -7 2 -34 6 -62 10 -27 4 -61 10 -75 13 -14 3
-124 6 -245 8 -170 2 -251 -2 -355 -16z"/>
<path d="M2312 3809 c-24 -6 -42 -12 -40 -14 1 -1 25 -6 51 -9 173 -23 363
-130 352 -198 -14 -86 -282 -131 -455 -76 -48 15 -129 56 -166 84 -31 23 -32
23 -27 3 15 -55 133 -144 268 -201 61 -26 205 -29 299 -7 193 45 272 167 190
292 -37 57 -108 98 -214 124 -39 10 -220 11 -258 2z"/>
<path d="M1278 3473 c7 -3 16 -2 19 1 4 3 -2 6 -13 5 -11 0 -14 -3 -6 -6z"/>
<path d="M1219 3466 c-2 -2 -17 -6 -34 -9 -228 -37 -567 -195 -805 -375 -74
-57 -268 -243 -329 -316 -32 -38 -33 -40 -30 -130 1 -50 4 -94 6 -99 3 -4 34
37 70 90 264 397 658 689 1108 824 33 9 51 18 39 18 -11 1 -23 -1 -25 -3z"/>
<path d="M1255 2991 c-501 -266 -867 -714 -1014 -1243 l-22 -77 24 -53 c13
-29 34 -77 47 -105 13 -29 25 -52 26 -50 2 2 10 48 18 103 40 258 137 525 275
749 60 98 118 184 135 200 6 6 29 33 51 60 37 46 151 163 221 226 62 56 282
208 302 209 4 0 16 7 26 15 36 27 2 14 -89 -34z"/>
<path d="M1639 2562 c-156 -104 -353 -279 -447 -397 -139 -177 -240 -345 -311
-521 -44 -108 -93 -260 -105 -324 -15 -79 -26 -139 -31 -165 -6 -37 -15 -129
-19 -211 l-3 -61 79 -79 c72 -72 78 -76 73 -49 -6 36 -7 339 -1 375 3 14 7 45
10 70 16 147 67 346 125 492 39 97 93 212 103 216 4 2 8 9 8 16 0 16 107 180
180 277 95 124 295 315 420 401 14 9 21 17 15 17 -5 0 -49 -26 -96 -57z"/>
<path d="M1869 2043 c-13 -16 -12 -17 4 -4 9 7 17 15 17 17 0 8 -8 3 -21 -13z"/>
<path d="M1816 1968 c-87 -139 -104 -167 -130 -223 -122 -257 -164 -397 -211
-700 -3 -22 -8 -107 -9 -190 -4 -189 8 -326 42 -491 l17 -79 60 -31 c33 -18
70 -35 82 -38 l22 -7 -25 71 c-25 73 -69 239 -78 300 -3 19 -7 44 -10 55 -22
108 -28 418 -9 542 20 139 23 155 43 241 45 191 133 405 232 570 33 53 10 36
-26 -20z"/>
</g>
</svg>
